<svg width="308" height="308" viewBox="0 0 308 308" fill="none" xmlns="http://www.w3.org/2000/svg">
<rect width="308" height="308" rx="16" fill="black"/>
<path d="M81.632 79.032V117.336C81.632 120.472 82.304 122.968 83.648 124.824C85.056 126.616 87.296 127.512 90.368 127.512C93.44 127.512 95.712 126.616 97.184 124.824C98.656 122.968 99.392 120.472 99.392 117.336V79.032H120.608V117.336C120.608 123.8 119.264 129.336 116.576 133.944C113.888 138.488 110.208 141.912 105.536 144.216C100.864 146.52 95.648 147.672 89.888 147.672C84.128 147.672 79.008 146.52 74.528 144.216C70.112 141.912 66.656 138.488 64.16 133.944C61.664 129.4 60.416 123.864 60.416 117.336V79.032H81.632ZM194.984 147H173.672L151.112 112.824V147H129.8V79.032H151.112L173.672 113.784V79.032H194.984V147ZM225.925 79.032V147H204.613V79.032H225.925Z" fill="white"/>
<path d="M82.112 212.872H102.656V229H60.8V161.032H82.112V212.872ZM174.547 229H153.235L130.675 194.824V229H109.363V161.032H130.675L153.235 195.784V161.032H174.547V229ZM225.263 229L205.487 199.528V229H184.175V161.032H205.487V189.64L224.975 161.032H249.071L225.647 193.576L250.607 229H225.263Z" fill="white"/>
</svg>
